<svg xmlns="http://www.w3.org/2000/svg" xmlns:xlink="http://www.w3.org/1999/xlink" xmlns:lucid="lucid" width="1270" height="1092.4"><g transform="translate(-223.5333333333335 10.066302083333326)" lucid:page-tab-id="0_0"><path d="M224.53 162a6 6 0 0 1 6-6h1256a6 6 0 0 1 6 6v913.33a6 6 0 0 1-6 6h-1256a6 6 0 0 1-6-6z" stroke="#000" stroke-width="2" fill="#fff"/><path d="M281.87 249.07a6 6 0 0 1 6-6H625.2a6 6 0 0 1 6 6V793.6a6 6 0 0 1-6 6H287.87a6 6 0 0 1-6-6zM1079.2 249.07a6 6 0 0 1 6-6h337.33a6 6 0 0 1 6 6V793.6a6 6 0 0 1-6 6H1085.2a6 6 0 0 1-6-6zM721.2 277.2a6 6 0 0 1 6-6h245.33a6 6 0 0 1 6 6v138.67a6 6 0 0 1-6 6H727.2a6 6 0 0 1-6-6z" stroke="#000" stroke-width="2" fill="#fff"/><use xlink:href="#a" transform="matrix(1,0,0,1,734.066666666667,278.73333333333335) translate(28.23095703125 59.1875)"/><use xlink:href="#b" transform="matrix(1,0,0,1,734.066666666667,278.73333333333335) translate(123.91552734375 59.1875)"/><use xlink:href="#c" transform="matrix(1,0,0,1,734.066666666667,278.73333333333335) translate(24.09228515625 96.93828124999999)"/><use xlink:href="#d" transform="matrix(1,0,0,1,734.066666666667,278.73333333333335) translate(83.36669921875 96.93828124999999)"/><use xlink:href="#e" transform="matrix(1,0,0,1,734.066666666667,278.73333333333335) translate(184.31982421875 96.93828124999999)"/><path d="M721.2 543.2a6 6 0 0 1 6-6h245.33a6 6 0 0 1 6 6v138.67a6 6 0 0 1-6 6H727.2a6 6 0 0 1-6-6z" stroke="#000" stroke-width="2" fill="#fff"/><use xlink:href="#f" transform="matrix(1,0,0,1,734.066666666667,544.7333333333335) translate(34.15966796875 59.1875)"/><use xlink:href="#g" transform="matrix(1,0,0,1,734.066666666667,544.7333333333335) translate(109.46826171875 59.1875)"/><use xlink:href="#h" transform="matrix(1,0,0,1,734.066666666667,544.7333333333335) translate(76.0732421875 96.93828124999999)"/><path d="M334.53 299.87a6 6 0 0 1 6-6h232a6 6 0 0 1 6 6v148a6 6 0 0 1-6 6h-232a6 6 0 0 1-6-6zM334.53 558.53a6 6 0 0 1 6-6h232a6 6 0 0 1 6 6v148a6 6 0 0 1-6 6h-232a6 6 0 0 1-6-6zM1131.87 299.87a6 6 0 0 1 6-6h232a6 6 0 0 1 6 6v148a6 6 0 0 1-6 6h-232a6 6 0 0 1-6-6zM1131.87 558.53a6 6 0 0 1 6-6h232a6 6 0 0 1 6 6v148a6 6 0 0 1-6 6h-232a6 6 0 0 1-6-6z" stroke="#000" stroke-width="2" fill="#fff"/><path d="M408.53 349.87a6 6 0 0 1 6-6h84a6 6 0 0 1 6 6v48a6 6 0 0 1-6 6h-84a6 6 0 0 1-6-6z" stroke="#000" stroke-width="2" fill="#fff"/><use xlink:href="#i" transform="matrix(1,0,0,1,413.3333333333334,346.8666666666666) translate(18.26171875 35.3125)"/><path d="M408.53 608.53a6 6 0 0 1 6-6h84a6 6 0 0 1 6 6v48a6 6 0 0 1-6 6h-84a6 6 0 0 1-6-6z" stroke="#000" stroke-width="2" fill="#fff"/><use xlink:href="#i" transform="matrix(1,0,0,1,413.3333333333334,605.5333333333334) translate(18.26171875 35.3125)"/><path d="M1205.87 349.87a6 6 0 0 1 6-6h84a6 6 0 0 1 6 6v48a6 6 0 0 1-6 6h-84a6 6 0 0 1-6-6z" stroke="#000" stroke-width="2" fill="#fff"/><use xlink:href="#i" transform="matrix(1,0,0,1,1210.6666666666667,346.8666666666666) translate(18.26171875 35.3125)"/><path d="M1205.87 608.53a6 6 0 0 1 6-6h84a6 6 0 0 1 6 6v48a6 6 0 0 1-6 6h-84a6 6 0 0 1-6-6z" stroke="#000" stroke-width="2" fill="#fff"/><use xlink:href="#i" transform="matrix(1,0,0,1,1210.6666666666667,605.5333333333334) translate(18.26171875 35.3125)"/><path d="M736.88 99.22a6 6 0 0 1 6-6h216.67a6 6 0 0 1 6 6v117.34a6 6 0 0 1-6 6H742.88a6 6 0 0 1-6-6z" stroke="#000" stroke-width="2" fill="#fff"/><path d="M759.75 93.22v129.34M942.68 93.22v129.34" stroke="#000" stroke-width="2" fill="none"/><use xlink:href="#j" transform="matrix(1,0,0,1,770.4623860677082,98.22223958333333) translate(6.226779513888928 48.97280815972222)"/><use xlink:href="#k" transform="matrix(1,0,0,1,770.4623860677082,98.22223958333333) translate(17.10085720486113 93.1767144097222)"/><path d="M331.1 258.4a6 6 0 0 1 6-6h233.85a6 6 0 0 1 6 6v29.47a6 6 0 0 1-6 6H337.1a6 6 0 0 1-6-6z" fill="none"/><use xlink:href="#l" transform="matrix(1,0,0,1,336.0986458333334,257.3976822916666) translate(0 25.4580078125)"/><use xlink:href="#m" transform="matrix(1,0,0,1,336.0986458333334,257.3976822916666) translate(100.953125 25.4580078125)"/><use xlink:href="#n" transform="matrix(1,0,0,1,336.0986458333334,257.3976822916666) translate(213.306640625 25.4580078125)"/><path d="M329.35 718.53a6 6 0 0 1 6-6h235.6a6 6 0 0 1 6 6V748a6 6 0 0 1-6 6h-235.6a6 6 0 0 1-6-6z" fill="none"/><use xlink:href="#o" transform="matrix(1,0,0,1,334.3466927083334,717.5333333333334) translate(0 25.4580078125)"/><use xlink:href="#p" transform="matrix(1,0,0,1,334.3466927083334,717.5333333333334) translate(111.9345703125 25.4580078125)"/><path d="M1130.02 258.4a6 6 0 0 1 6-6h238.25a6 6 0 0 1 6 6v29.47a6 6 0 0 1-6 6h-238.25a6 6 0 0 1-6-6z" fill="none"/><use xlink:href="#l" transform="matrix(1,0,0,1,1135.0158463541668,257.3976822916666) translate(0 25.4580078125)"/><use xlink:href="#m" transform="matrix(1,0,0,1,1135.0158463541668,257.3976822916666) translate(100.953125 25.4580078125)"/><use xlink:href="#q" transform="matrix(1,0,0,1,1135.0158463541668,257.3976822916666) translate(213.306640625 25.4580078125)"/><path d="M1132.67 718.53a6 6 0 0 1 6-6h240a6 6 0 0 1 6 6V748a6 6 0 0 1-6 6h-240a6 6 0 0 1-6-6z" fill="none"/><use xlink:href="#o" transform="matrix(1,0,0,1,1137.6691666666668,717.5333333333334) translate(0 25.4580078125)"/><use xlink:href="#r" transform="matrix(1,0,0,1,1137.6691666666668,717.5333333333334) translate(111.9345703125 25.4580078125)"/><path d="M581.03 617.87H702.7" stroke="#3a414a" stroke-width="3" fill="none"/><path d="M581.07 619.34h-1.54v-2.95h1.54z" stroke="#3a414a" stroke-width=".05" fill="#3a414a"/><path d="M717.2 617.87l-13 7.5v-15z" stroke="#3a414a" stroke-width="3" fill="#3a414a"/><path d="M578.03 361.87H702.7M578.07 361.87h-1.54" stroke="#3a414a" stroke-width="3" fill="none"/><path d="M717.2 361.87l-13 7.5v-15z" stroke="#3a414a" stroke-width="3" fill="#3a414a"/><path d="M1172.83 319.1L996.8 348.35" stroke="#3a414a" stroke-width="3" fill="none"/><path d="M1174.3 320.36l-1.26.2-.5-2.9 1.77-.3z" stroke="#3a414a" stroke-width=".05" fill="#3a414a"/><path d="M982.5 350.7l11.58-9.52 2.46 14.8z" stroke="#3a414a" stroke-width="3" fill="#3a414a"/><path d="M1129.37 611.2H997.02" stroke="#3a414a" stroke-width="3" fill="none"/><path d="M1130.87 612.67h-1.54v-2.94h1.54z" stroke="#3a414a" stroke-width=".05" fill="#3a414a"/><path d="M982.53 611.2l13-7.5v15z" stroke="#3a414a" stroke-width="3" fill="#3a414a"/><path d="M848.54 268.37l.12-27.32M848.54 268.33v1.54" stroke="#3a414a" stroke-width="3" fill="none"/><path d="M848.73 226.56l7.44 13.02-15-.07z" stroke="#3a414a" stroke-width="3" fill="#3a414a"/><path d="M511.2 399.87a6 6 0 0 1 6-6h46.67a6 6 0 0 1 6 6v30.66a6 6 0 0 1-6 6H517.2a6 6 0 0 1-6-6z" stroke="#000" stroke-width="2" fill="#fff"/><use xlink:href="#s" transform="matrix(1,0,0,1,514.1333333333334,395.99999999999994) translate(7.128906250000007 26.04166666666666)"/><path d="M455.17 454.87V547M1249.33 454.87V547" stroke="#000" stroke-width="2" stroke-linecap="round" fill="none"/><path d="M581.2 435.55l126.9 92.4M581.24 435.57l-1.24-.9" stroke="#3a414a" stroke-width="3" fill="none"/><path d="M719.82 536.48l-14.9-1.58 8.82-12.13z" stroke="#3a414a" stroke-width="3" fill="#3a414a"/><path d="M777.2 908.14a6 6 0 0 1 6-6h133.33a6 6 0 0 1 6 6v148.8a6 6 0 0 1-6 6H783.2a6 6 0 0 1-6-6z" stroke="#000" stroke-width="2" fill="#fff"/><use xlink:href="#t" transform="matrix(1,0,0,1,784.4666666666669,910.1776692708335) translate(39.44921875 25.1875)"/><use xlink:href="#u" transform="matrix(1,0,0,1,784.4666666666669,910.1776692708335) translate(3.115234375 62.938281249999996)"/><use xlink:href="#g" transform="matrix(1,0,0,1,784.4666666666669,910.1776692708335) translate(21.31396484375 100.68906249999999)"/><use xlink:href="#h" transform="matrix(1,0,0,1,784.4666666666669,910.1776692708335) translate(25.5732421875 138.43984375)"/><path d="M460 802.1l.03 5.85.33 6.95.58 6.6.83 6.3 1.05 6.06 1.26 5.8 1.47 5.6 1.66 5.43 1.88 5.26 2.06 5.14 2.26 5.02 2.47 4.92 2.7 4.83 2.9 4.77 3.17 4.72 3.43 4.67 3.72 4.64 4 4.62 4.4 4.6 4.75 4.6 5.18 4.64 5.67 4.64 6.2 4.66 6.84 4.7 7.53 4.73 8.34 4.76 9.3 4.8 10.36 4.8 11.63 4.83 13.1 4.8 14.87 4.74 16.9 4.63 19.3 4.42 22.07 4.1 25.2 3.58 28.48 2.85 31.4 1.82 11.4.2" stroke="#3a414a" stroke-width="3" stroke-linejoin="round" fill="none"/><path d="M461.48 802.14h-2.95v-1.54h2.95z" stroke="#3a414a" stroke-width=".05" fill="#3a414a"/><path d="M773.2 982.48l-13.13 7.25.28-15z" stroke="#3a414a" stroke-width="3" fill="#3a414a"/><path d="M1258.67 805v171.33M923.53 974.33h332.8" stroke="#000" stroke-width="2" stroke-linecap="round" fill="none"/><path d="M846.67 424.17v94.54M846.67 424.2v-1.53" stroke="#3a414a" stroke-width="3" fill="none"/><path d="M846.67 533.2l-7.5-13h15z" stroke="#3a414a" stroke-width="3" fill="#3a414a"/><path d="M849.87 688.87v211.46" stroke="#000" stroke-width="2" stroke-linecap="round" fill="none"/><path d="M383.9 310.9a6 6 0 0 1 6-6h138.03a6 6 0 0 1 6 6v23.83a6 6 0 0 1-6 6H389.9a6 6 0 0 1-6-6z" fill="none"/><use xlink:href="#v" transform="matrix(1,0,0,1,388.8921028645834,309.9119921875) translate(0 20.760416666666668)"/><path d="M383.9 673.42a6 6 0 0 1 6-6h143.33a6 6 0 0 1 6 6v23.83a6 6 0 0 1-6 6H389.9a6 6 0 0 1-6-6z" fill="none"/><g><use xlink:href="#w" transform="matrix(1,0,0,1,388.8921028645834,672.4220833333334) translate(0 20.760416666666668)"/></g><path d="M1174.3 306.95a6 6 0 0 1 6-6h144.23a6 6 0 0 1 6 6v23.83a6 6 0 0 1-6 6H1180.3a6 6 0 0 1-6-6z" fill="none"/><g><use xlink:href="#x" transform="matrix(1,0,0,1,1179.312708333333,305.9554166666666) translate(0 20.760416666666668)"/></g><path d="M1174.3 675.62a6 6 0 0 1 6-6h144.28a6 6 0 0 1 6 6v23.83a6 6 0 0 1-6 6H1180.3a6 6 0 0 1-6-6z" fill="none"/><g><use xlink:href="#y" transform="matrix(1,0,0,1,1179.3127083333334,674.6220833333334) translate(0 20.760416666666668)"/></g><path d="M378.18 184.67a6 6 0 0 1 6-6H522.1a6 6 0 0 1 6 6v31.9a6 6 0 0 1-6 6H384.2a6 6 0 0 1-6-6z" fill="none"/><g><use xlink:href="#z" transform="matrix(1,0,0,1,383.1840950520834,183.66666666666666) translate(0 27.185546875)"/></g><path d="M1174.3 184.67a6 6 0 0 1 6-6h139.36a6 6 0 0 1 6 6v31.9a6 6 0 0 1-6 6H1180.3a6 6 0 0 1-6-6z" fill="none"/><g><use xlink:href="#A" transform="matrix(1,0,0,1,1179.312708333333,183.66666666666666) translate(0 27.185546875)"/></g><path d="M929 991.74a6 6 0 0 1 6-6h505.57a6 6 0 0 1 6 6v54.8a6 6 0 0 1-6 6H935a6 6 0 0 1-6-6z" fill="none"/><g><use xlink:href="#B" transform="matrix(1,0,0,1,934,990.7358333333333) translate(15.442708333333314 20.772916666666667)"/><use xlink:href="#C" transform="matrix(1,0,0,1,934,990.7358333333333) translate(64.19270833333331 20.772916666666667)"/><use xlink:href="#D" transform="matrix(1,0,0,1,934,990.7358333333333) translate(158.02604166666666 20.772916666666667)"/><use xlink:href="#E" transform="matrix(1,0,0,1,934,990.7358333333333) translate(195.859375 20.772916666666667)"/><use xlink:href="#F" transform="matrix(1,0,0,1,934,990.7358333333333) translate(271.5260416666667 20.772916666666667)"/><use xlink:href="#G" transform="matrix(1,0,0,1,934,990.7358333333333) translate(357.53645833333337 20.772916666666667)"/><use xlink:href="#H" transform="matrix(1,0,0,1,934,990.7358333333333) translate(396.03645833333337 20.772916666666667)"/><use xlink:href="#I" transform="matrix(1,0,0,1,934,990.7358333333333) translate(57.03125 51.74791666666667)"/><use xlink:href="#J" transform="matrix(1,0,0,1,934,990.7358333333333) translate(140.39583333333334 51.74791666666667)"/><use xlink:href="#K" transform="matrix(1,0,0,1,934,990.7358333333333) translate(175.53125 51.74791666666667)"/><use xlink:href="#L" transform="matrix(1,0,0,1,934,990.7358333333333) translate(232.06250000000003 51.74791666666667)"/><use xlink:href="#M" transform="matrix(1,0,0,1,934,990.7358333333333) translate(247.87500000000003 51.74791666666667)"/><use xlink:href="#N" transform="matrix(1,0,0,1,934,990.7358333333333) translate(329.25 51.74791666666667)"/><use xlink:href="#O" transform="matrix(1,0,0,1,934,990.7358333333333) translate(354.8125 51.74791666666667)"/><use xlink:href="#P" transform="matrix(1,0,0,1,934,990.7358333333333) translate(407.75 51.74791666666667)"/></g><path d="M861.58 668.53a6 6 0 0 1 6-6h205.62a6 6 0 0 1 6 6v168.14a6 6 0 0 1-6 6H867.58a6 6 0 0 1-6-6z" fill="none"/><g><use xlink:href="#Q" transform="matrix(1,0,0,1,866.5825325520835,667.5333333333334) translate(0 46.797916666666666)"/><use xlink:href="#R" transform="matrix(1,0,0,1,866.5825325520835,667.5333333333334) translate(83.92708333333334 46.797916666666666)"/><use xlink:href="#D" transform="matrix(1,0,0,1,866.5825325520835,667.5333333333334) translate(0 77.77291666666667)"/><use xlink:href="#S" transform="matrix(1,0,0,1,866.5825325520835,667.5333333333334) translate(37.833333333333336 77.77291666666667)"/><use xlink:href="#T" transform="matrix(1,0,0,1,866.5825325520835,667.5333333333334) translate(144.17708333333334 77.77291666666667)"/><use xlink:href="#U" transform="matrix(1,0,0,1,866.5825325520835,667.5333333333334) translate(0 108.74791666666667)"/><use xlink:href="#F" transform="matrix(1,0,0,1,866.5825325520835,667.5333333333334) translate(67.26041666666667 108.74791666666667)"/><use xlink:href="#V" transform="matrix(1,0,0,1,866.5825325520835,667.5333333333334) translate(153.27083333333334 108.74791666666667)"/><use xlink:href="#W" transform="matrix(1,0,0,1,866.5825325520835,667.5333333333334) translate(0 139.72291666666666)"/><use xlink:href="#X" transform="matrix(1,0,0,1,866.5825325520835,667.5333333333334) translate(63.10416666666668 139.72291666666666)"/><use xlink:href="#Y" transform="matrix(1,0,0,1,866.5825325520835,667.5333333333334) translate(101.13541666666669 139.72291666666666)"/></g><path d="M243.87-4.07a6 6 0 0 1 6-6h1200a6 6 0 0 1 6 6v42.65a6 6 0 0 1-6 6h-1200a6 6 0 0 1-6-6z" fill="none"/><g><use xlink:href="#Z" transform="matrix(1,0,0,1,248.86666666666702,-5.066302083333326) translate(0 35.91905381944444)"/><use xlink:href="#aa" transform="matrix(1,0,0,1,248.86666666666702,-5.066302083333326) translate(87.46701388888886 35.91905381944444)"/><use xlink:href="#ab" transform="matrix(1,0,0,1,248.86666666666702,-5.066302083333326) translate(321.9312065972222 35.91905381944444)"/><use xlink:href="#ac" transform="matrix(1,0,0,1,248.86666666666702,-5.066302083333326) translate(408.58767361111103 35.91905381944444)"/><use xlink:href="#ad" transform="matrix(1,0,0,1,248.86666666666702,-5.066302083333326) translate(529.1430121527776 35.91905381944444)"/><use xlink:href="#ae" transform="matrix(1,0,0,1,248.86666666666702,-5.066302083333326) translate(605.5145399305553 35.91905381944444)"/><use xlink:href="#af" transform="matrix(1,0,0,1,248.86666666666702,-5.066302083333326) translate(741.7404513888886 35.91905381944444)"/><use xlink:href="#ag" transform="matrix(1,0,0,1,248.86666666666702,-5.066302083333326) translate(899.689019097222 35.91905381944444)"/><use xlink:href="#ah" transform="matrix(1,0,0,1,248.86666666666702,-5.066302083333326) translate(1031.6100260416663 35.91905381944444)"/></g><defs><path d="M180 0v-1490h510c348 0 508 194 508 460 0 198-88 351-276 417L1256 0h-220L726-579c-117 2-238 0-356 1V0H180zm190-747h312c235 0 327-108 327-283 0-177-92-293-329-293H370v576" id="ai"/><path d="M784 20c-382 0-662-292-662-764 0-473 280-766 662-766s660 293 660 766c0 472-278 764-660 764zm0-176c266 0 475-207 475-588 0-383-209-590-475-590-268 0-477 208-477 590 0 380 209 588 477 588" id="aj"/><path d="M763 24c-353 0-583-224-583-531v-983h190v968c0 214 149 370 393 370 243 0 391-156 391-370v-968h190v983c0 307-230 531-581 531" id="ak"/><path d="M98-1322v-168h1126v168H757V0H567v-1322H98" id="al"/><path d="M180 0v-1490h908v168H370v486h669v168H370v500h727V0H180" id="am"/><g id="a"><use transform="matrix(0.0126953125,0,0,0.0126953125,0,0)" xlink:href="#ai"/><use transform="matrix(0.0126953125,0,0,0.0126953125,16.732421875,0)" xlink:href="#aj"/><use transform="matrix(0.0126953125,0,0,0.0126953125,36.61328125,0)" xlink:href="#ak"/><use transform="matrix(0.0126953125,0,0,0.0126953125,55.9609375,0)" xlink:href="#al"/><use transform="matrix(0.0126953125,0,0,0.0126953125,72.744140625,0)" xlink:href="#am"/></g><path d="M52 0l541-1490h220L1361 0h-200l-149-416H398L254 0H52zm404-582h497c-103-290-145-390-251-756-108 377-145 460-246 756" id="an"/><path d="M180 0v-1490h528c311 0 458 177 458 395 0 191-114 278-244 313v14c139 9 302 137 302 371 0 225-148 397-499 397H180zm190-168h350c232 0 321-102 321-231 0-149-120-277-311-277H370v508zm0-668h328c160 0 286-101 286-255 0-129-87-231-280-231H370v486" id="ao"/><path d="M180 0v-1490h190v1322h690V0H180" id="ap"/><g id="b"><use transform="matrix(0.0126953125,0,0,0.0126953125,0,0)" xlink:href="#al"/><use transform="matrix(0.0126953125,0,0,0.0126953125,14.57421875,0)" xlink:href="#an"/><use transform="matrix(0.0126953125,0,0,0.0126953125,32.5126953125,0)" xlink:href="#ao"/><use transform="matrix(0.0126953125,0,0,0.0126953125,49.5244140625,0)" xlink:href="#ap"/><use transform="matrix(0.0126953125,0,0,0.0126953125,64.2255859375,0)" xlink:href="#am"/></g><path d="M180 0v-1490h901v168H370v510h643v168H370V0H180" id="aq"/><g id="c"><use transform="matrix(0.0126953125,0,0,0.0126953125,0,0)" xlink:href="#aq"/><use transform="matrix(0.0126953125,0,0,0.0126953125,15.3486328125,0)" xlink:href="#aj"/><use transform="matrix(0.0126953125,0,0,0.0126953125,35.2294921875,0)" xlink:href="#ai"/></g><path d="M180 0v-1490h510c348 0 508 209 508 474 0 266-160 477-507 477H370V0H180zm190-706h312c236 0 327-133 327-310 0-176-91-307-329-307H370v617" id="ar"/><path d="M370-1490V0H180v-1490h190" id="as"/><path d="M783 20c-382 0-661-292-661-764 0-473 279-766 661-766 302 0 548 182 601 489h-190c-42-204-217-313-411-313-268 0-476 208-476 590 0 381 209 588 476 588 195 0 369-110 411-313h190c-52 303-296 489-601 489" id="at"/><g id="d"><use transform="matrix(0.0126953125,0,0,0.0126953125,0,0)" xlink:href="#ar"/><use transform="matrix(0.0126953125,0,0,0.0126953125,16.60546875,0)" xlink:href="#ak"/><use transform="matrix(0.0126953125,0,0,0.0126953125,35.953125,0)" xlink:href="#ao"/><use transform="matrix(0.0126953125,0,0,0.0126953125,52.96484375,0)" xlink:href="#ap"/><use transform="matrix(0.0126953125,0,0,0.0126953125,67.666015625,0)" xlink:href="#as"/><use transform="matrix(0.0126953125,0,0,0.0126953125,74.6484375,0)" xlink:href="#at"/></g><g id="e"><use transform="matrix(0.0126953125,0,0,0.0126953125,0,0)" xlink:href="#as"/><use transform="matrix(0.0126953125,0,0,0.0126953125,6.982421875,0)" xlink:href="#ar"/></g><path d="M180 0v-1490h270l367 940c28 72 75 218 110 339 35-117 81-264 110-339l362-940h271V0h-187c2-448-5-837 7-1287-157 497-311 829-483 1287H842C666-458 514-784 354-1284c12 438 5 843 7 1284H180" id="au"/><path d="M180 0v-1490h224l606 953c40 63 108 177 176 312-27-437-7-821-13-1265h190V0h-226C860-448 622-778 356-1262c27 476 11 792 15 1262H180" id="av"/><g id="f"><use transform="matrix(0.0126953125,0,0,0.0126953125,0,0)" xlink:href="#au"/><use transform="matrix(0.0126953125,0,0,0.0126953125,23.486328125,0)" xlink:href="#an"/><use transform="matrix(0.0126953125,0,0,0.0126953125,41.4248046875,0)" xlink:href="#as"/><use transform="matrix(0.0126953125,0,0,0.0126953125,48.4072265625,0)" xlink:href="#av"/></g><g id="g"><use transform="matrix(0.0126953125,0,0,0.0126953125,0,0)" xlink:href="#ai"/><use transform="matrix(0.0126953125,0,0,0.0126953125,16.732421875,0)" xlink:href="#aj"/><use transform="matrix(0.0126953125,0,0,0.0126953125,36.61328125,0)" xlink:href="#ak"/><use transform="matrix(0.0126953125,0,0,0.0126953125,55.9609375,0)" xlink:href="#al"/><use transform="matrix(0.0126953125,0,0,0.0126953125,72.744140625,0)" xlink:href="#am"/></g><g id="h"><use transform="matrix(0.0126953125,0,0,0.0126953125,0,0)" xlink:href="#al"/><use transform="matrix(0.0126953125,0,0,0.0126953125,14.57421875,0)" xlink:href="#an"/><use transform="matrix(0.0126953125,0,0,0.0126953125,32.5126953125,0)" xlink:href="#ao"/><use transform="matrix(0.0126953125,0,0,0.0126953125,49.5244140625,0)" xlink:href="#ap"/><use transform="matrix(0.0126953125,0,0,0.0126953125,64.2255859375,0)" xlink:href="#am"/></g><path d="M154 0v-137l495-537c165-179 249-281 249-418 0-156-121-253-280-253-170 0-278 110-278 278H158c0-264 200-443 465-443 266 0 455 183 455 416 0 161-73 288-336 568L416-179v12h687V0H154" id="aw"/><g id="i"><use transform="matrix(0.0126953125,0,0,0.0126953125,0,0)" xlink:href="#am"/><use transform="matrix(0.0126953125,0,0,0.0126953125,15.6279296875,0)" xlink:href="#at"/><use transform="matrix(0.0126953125,0,0,0.0126953125,34.6201171875,0)" xlink:href="#aw"/></g><g id="j"><use transform="matrix(0.014865451388888883,0,0,0.014865451388888883,0,0)" xlink:href="#as"/><use transform="matrix(0.014865451388888883,0,0,0.014865451388888883,8.175998263888886,0)" xlink:href="#av"/><use transform="matrix(0.014865451388888883,0,0,0.014865451388888883,31.113389756944432,0)" xlink:href="#al"/><use transform="matrix(0.014865451388888883,0,0,0.014865451388888883,50.765516493055536,0)" xlink:href="#am"/><use transform="matrix(0.014865451388888883,0,0,0.014865451388888883,69.06488715277774,0)" xlink:href="#ai"/><use transform="matrix(0.014865451388888883,0,0,0.014865451388888883,88.65755208333329,0)" xlink:href="#av"/><use transform="matrix(0.014865451388888883,0,0,0.014865451388888883,111.59494357638883,0)" xlink:href="#am"/><use transform="matrix(0.014865451388888883,0,0,0.014865451388888883,129.89431423611103,0)" xlink:href="#al"/></g><path d="M789 20c-398 0-667-293-667-764 0-473 273-766 655-766 315 0 558 198 612 487h-196c-61-191-204-311-415-311-262 0-471 207-471 590 0 380 208 588 482 588 249 0 420-165 425-427H828v-166h572v163c0 370-256 606-611 606" id="ax"/><path d="M458 0L52-1490h194c108 439 233 855 324 1313 92-459 221-873 331-1313h216c110 438 234 854 330 1307 92-455 216-869 323-1307h196L1558 0h-221l-256-944c-26-95-50-200-73-331-22 122-44 223-73 331L680 0H458" id="ay"/><path d="M600 0v-610L52-1490h220l295 481c50 82 90 150 130 243 40-96 80-164 128-243l294-481h219L790-610V0H600" id="az"/><g id="k"><use transform="matrix(0.014865451388888883,0,0,0.014865451388888883,0,0)" xlink:href="#ax"/><use transform="matrix(0.014865451388888883,0,0,0.014865451388888883,22.030598958333325,0)" xlink:href="#an"/><use transform="matrix(0.014865451388888883,0,0,0.014865451388888883,40.44889322916666,0)" xlink:href="#al"/><use transform="matrix(0.014865451388888883,0,0,0.014865451388888883,60.10101996527776,0)" xlink:href="#ay"/><use transform="matrix(0.014865451388888883,0,0,0.014865451388888883,88.37510850694441,0)" xlink:href="#an"/><use transform="matrix(0.014865451388888883,0,0,0.014865451388888883,107.1353081597222,0)" xlink:href="#az"/></g><g id="l"><use transform="matrix(0.0126953125,0,0,0.0126953125,0,0)" xlink:href="#ar"/><use transform="matrix(0.0126953125,0,0,0.0126953125,16.60546875,0)" xlink:href="#ak"/><use transform="matrix(0.0126953125,0,0,0.0126953125,35.953125,0)" xlink:href="#ao"/><use transform="matrix(0.0126953125,0,0,0.0126953125,52.96484375,0)" xlink:href="#ap"/><use transform="matrix(0.0126953125,0,0,0.0126953125,67.666015625,0)" xlink:href="#as"/><use transform="matrix(0.0126953125,0,0,0.0126953125,74.6484375,0)" xlink:href="#at"/></g><path d="M657 26c-323 0-524-166-541-416h195c15 169 171 246 346 246 202 0 356-106 356-265 5-203-294-238-475-293-239-73-380-191-380-389 0-252 224-419 512-419 294 0 499 171 508 396H992c-17-145-151-228-328-228-193 0-321 102-321 242 0 156 175 211 284 241l149 41c160 44 422 134 422 412 0 244-197 432-541 432" id="aA"/><g id="m"><use transform="matrix(0.0126953125,0,0,0.0126953125,0,0)" xlink:href="#aA"/><use transform="matrix(0.0126953125,0,0,0.0126953125,16.681640625,0)" xlink:href="#ak"/><use transform="matrix(0.0126953125,0,0,0.0126953125,36.029296875,0)" xlink:href="#ao"/><use transform="matrix(0.0126953125,0,0,0.0126953125,53.041015625,0)" xlink:href="#av"/><use transform="matrix(0.0126953125,0,0,0.0126953125,72.6298828125,0)" xlink:href="#am"/><use transform="matrix(0.0126953125,0,0,0.0126953125,88.2578125,0)" xlink:href="#al"/></g><path d="M798-719v166H144v-166h654" id="aB"/><path d="M653-1490V0H466v-1314h-10L96-1047v-204l324-239h233" id="aC"/><g id="n"><use transform="matrix(0.0126953125,0,0,0.0126953125,0,0)" xlink:href="#aB"/><use transform="matrix(0.0126953125,0,0,0.0126953125,11.958984375,0)" xlink:href="#aC"/></g><path d="M600 0L52-1490h200c166 485 304 806 458 1336 156-533 285-846 449-1336h202L819 0H600" id="aD"/><g id="o"><use transform="matrix(0.0126953125,0,0,0.0126953125,0,0)" xlink:href="#ar"/><use transform="matrix(0.0126953125,0,0,0.0126953125,16.60546875,0)" xlink:href="#ai"/><use transform="matrix(0.0126953125,0,0,0.0126953125,33.337890625,0)" xlink:href="#as"/><use transform="matrix(0.0126953125,0,0,0.0126953125,40.3203125,0)" xlink:href="#aD"/><use transform="matrix(0.0126953125,0,0,0.0126953125,56.4814453125,0)" xlink:href="#an"/><use transform="matrix(0.0126953125,0,0,0.0126953125,72.2109375,0)" xlink:href="#al"/><use transform="matrix(0.0126953125,0,0,0.0126953125,88.994140625,0)" xlink:href="#am"/></g><g id="p"><use transform="matrix(0.0126953125,0,0,0.0126953125,0,0)" xlink:href="#aA"/><use transform="matrix(0.0126953125,0,0,0.0126953125,16.681640625,0)" xlink:href="#ak"/><use transform="matrix(0.0126953125,0,0,0.0126953125,36.029296875,0)" xlink:href="#ao"/><use transform="matrix(0.0126953125,0,0,0.0126953125,53.041015625,0)" xlink:href="#av"/><use transform="matrix(0.0126953125,0,0,0.0126953125,72.6298828125,0)" xlink:href="#am"/><use transform="matrix(0.0126953125,0,0,0.0126953125,88.2578125,0)" xlink:href="#al"/><use transform="matrix(0.0126953125,0,0,0.0126953125,103.1240234375,0)" xlink:href="#aB"/><use transform="matrix(0.0126953125,0,0,0.0126953125,115.0830078125,0)" xlink:href="#aC"/></g><g id="q"><use transform="matrix(0.0126953125,0,0,0.0126953125,0,0)" xlink:href="#aB"/><use transform="matrix(0.0126953125,0,0,0.0126953125,11.0830078125,0)" xlink:href="#aw"/></g><g id="r"><use transform="matrix(0.0126953125,0,0,0.0126953125,0,0)" xlink:href="#aA"/><use transform="matrix(0.0126953125,0,0,0.0126953125,16.681640625,0)" xlink:href="#ak"/><use transform="matrix(0.0126953125,0,0,0.0126953125,36.029296875,0)" xlink:href="#ao"/><use transform="matrix(0.0126953125,0,0,0.0126953125,53.041015625,0)" xlink:href="#av"/><use transform="matrix(0.0126953125,0,0,0.0126953125,72.6298828125,0)" xlink:href="#am"/><use transform="matrix(0.0126953125,0,0,0.0126953125,88.2578125,0)" xlink:href="#al"/><use transform="matrix(0.0126953125,0,0,0.0126953125,103.1240234375,0)" xlink:href="#aB"/><use transform="matrix(0.0126953125,0,0,0.0126953125,114.20703125,0)" xlink:href="#aw"/></g><g id="s"><use transform="matrix(0.009440104166666664,0,0,0.009440104166666664,0,0)" xlink:href="#av"/><use transform="matrix(0.009440104166666664,0,0,0.009440104166666664,14.566080729166663,0)" xlink:href="#an"/><use transform="matrix(0.009440104166666664,0,0,0.009440104166666664,26.262369791666657,0)" xlink:href="#al"/></g><g id="t"><use transform="matrix(0.0126953125,0,0,0.0126953125,0,0)" xlink:href="#av"/><use transform="matrix(0.0126953125,0,0,0.0126953125,19.5888671875,0)" xlink:href="#an"/><use transform="matrix(0.0126953125,0,0,0.0126953125,35.318359375,0)" xlink:href="#al"/></g><g id="u"><use transform="matrix(0.0126953125,0,0,0.0126953125,0,0)" xlink:href="#ax"/><use transform="matrix(0.0126953125,0,0,0.0126953125,18.814453125,0)" xlink:href="#an"/><use transform="matrix(0.0126953125,0,0,0.0126953125,34.5439453125,0)" xlink:href="#al"/><use transform="matrix(0.0126953125,0,0,0.0126953125,51.3271484375,0)" xlink:href="#am"/><use transform="matrix(0.0126953125,0,0,0.0126953125,66.955078125,0)" xlink:href="#ay"/><use transform="matrix(0.0126953125,0,0,0.0126953125,91.1015625,0)" xlink:href="#an"/><use transform="matrix(0.0126953125,0,0,0.0126953125,107.123046875,0)" xlink:href="#az"/></g><path d="M603 20c-253 0-434-161-469-399h188c31 132 124 231 281 231 227 0 367-207 367-568h-12c-80 122-211 199-367 199-257 0-469-206-469-493 0-278 200-505 506-500 245 4 520 158 520 706 0 527-208 824-545 824zm16-703c181 0 324-157 324-332 0-171-135-328-318-328-180 0-317 148-317 332 0 183 131 328 311 328" id="aE"/><path d="M295 13c-75 0-135-60-135-135s60-135 135-135 135 60 135 135S370 13 295 13" id="aF"/><path d="M646 20c-249 0-524-159-524-708 0-524 209-822 547-822 250 0 431 161 467 395H950c-33-129-126-227-281-227-229 0-367 208-367 566h12c80-124 212-198 367-198 255 0 467 205 467 493 0 278-198 501-502 501zm0-167c179 0 318-148 318-334 0-182-133-328-313-328-181 0-322 156-322 330 0 176 134 332 317 332" id="aG"/><path d="M633 20c-303 0-511-173-511-416 0-188 124-348 291-378v-8c-145-37-237-174-237-332 0-227 192-396 457-396 261 0 456 169 456 396 0 158-94 295-235 332v8c162 30 291 190 291 378 0 243-212 416-512 416zm0-165c197 0 322-103 322-261 0-165-138-283-322-283-188 0-324 118-324 283 0 158 123 261 324 261zm0-703c157 0 272-101 272-252 0-149-110-246-272-246-165 0-273 97-273 246 0 151 112 252 273 252" id="aH"/><path d="M646 20c-332 0-524-278-524-764 0-483 194-766 524-766s524 283 524 766c0 485-191 764-524 764zm0-166c218 0 341-220 341-598 0-380-123-601-341-601s-341 222-341 601c0 378 123 598 341 598" id="aI"/><path d="M692-1560L212 224H46l480-1784h166" id="aJ"/><path d="M120-303v-155l652-1032h231v1020h202v167h-202V0H821v-303H120zm702-167v-782h-12L323-482v12h499" id="aK"/><g id="v"><use transform="matrix(0.010416666666666668,0,0,0.010416666666666668,0,0)" xlink:href="#aC"/><use transform="matrix(0.010416666666666668,0,0,0.010416666666666668,8.677083333333334,0)" xlink:href="#aE"/><use transform="matrix(0.010416666666666668,0,0,0.010416666666666668,21.906249999999996,0)" xlink:href="#aw"/><use transform="matrix(0.010416666666666668,0,0,0.010416666666666668,34.91666666666667,0)" xlink:href="#aF"/><use transform="matrix(0.010416666666666668,0,0,0.010416666666666668,39.21875000000001,0)" xlink:href="#aC"/><use transform="matrix(0.010416666666666668,0,0,0.010416666666666668,47.895833333333336,0)" xlink:href="#aG"/><use transform="matrix(0.010416666666666668,0,0,0.010416666666666668,61.125000000000014,0)" xlink:href="#aH"/><use transform="matrix(0.010416666666666668,0,0,0.010416666666666668,73.84375000000001,0)" xlink:href="#aF"/><use transform="matrix(0.010416666666666668,0,0,0.010416666666666668,78.14583333333334,0)" xlink:href="#aC"/><use transform="matrix(0.010416666666666668,0,0,0.010416666666666668,86.82291666666667,0)" xlink:href="#aF"/><use transform="matrix(0.010416666666666668,0,0,0.010416666666666668,92.42708333333333,0)" xlink:href="#aI"/><use transform="matrix(0.010416666666666668,0,0,0.010416666666666668,105.88541666666666,0)" xlink:href="#aJ"/><use transform="matrix(0.010416666666666668,0,0,0.010416666666666668,113.57291666666666,0)" xlink:href="#aw"/><use transform="matrix(0.010416666666666668,0,0,0.010416666666666668,126.25,0)" xlink:href="#aK"/></g><path d="M635 20c-292 0-500-160-510-396h192c11 142 145 229 315 229 187 0 323-105 323-260 0-161-125-274-346-274H488v-165h121c174 0 294-100 294-254 0-148-104-245-266-245-152 0-291 85-297 230H157c8-234 222-395 484-395 278 0 448 188 448 400 0 168-95 291-247 336v12c190 31 301 169 301 357 0 244-216 425-508 425" id="aL"/><g id="w"><use transform="matrix(0.010416666666666668,0,0,0.010416666666666668,0,0)" xlink:href="#aC"/><use transform="matrix(0.010416666666666668,0,0,0.010416666666666668,8.677083333333334,0)" xlink:href="#aE"/><use transform="matrix(0.010416666666666668,0,0,0.010416666666666668,21.906249999999996,0)" xlink:href="#aw"/><use transform="matrix(0.010416666666666668,0,0,0.010416666666666668,34.91666666666667,0)" xlink:href="#aF"/><use transform="matrix(0.010416666666666668,0,0,0.010416666666666668,39.21875000000001,0)" xlink:href="#aC"/><use transform="matrix(0.010416666666666668,0,0,0.010416666666666668,47.895833333333336,0)" xlink:href="#aG"/><use transform="matrix(0.010416666666666668,0,0,0.010416666666666668,61.125000000000014,0)" xlink:href="#aH"/><use transform="matrix(0.010416666666666668,0,0,0.010416666666666668,73.84375000000001,0)" xlink:href="#aF"/><use transform="matrix(0.010416666666666668,0,0,0.010416666666666668,79.41666666666667,0)" xlink:href="#aL"/><use transform="matrix(0.010416666666666668,0,0,0.010416666666666668,92.11458333333333,0)" xlink:href="#aF"/><use transform="matrix(0.010416666666666668,0,0,0.010416666666666668,97.71874999999999,0)" xlink:href="#aI"/><use transform="matrix(0.010416666666666668,0,0,0.010416666666666668,111.17708333333331,0)" xlink:href="#aJ"/><use transform="matrix(0.010416666666666668,0,0,0.010416666666666668,118.86458333333331,0)" xlink:href="#aw"/><use transform="matrix(0.010416666666666668,0,0,0.010416666666666668,131.54166666666666,0)" xlink:href="#aK"/></g><g id="x"><use transform="matrix(0.010416666666666668,0,0,0.010416666666666668,0,0)" xlink:href="#aC"/><use transform="matrix(0.010416666666666668,0,0,0.010416666666666668,8.677083333333334,0)" xlink:href="#aE"/><use transform="matrix(0.010416666666666668,0,0,0.010416666666666668,21.906249999999996,0)" xlink:href="#aw"/><use transform="matrix(0.010416666666666668,0,0,0.010416666666666668,34.91666666666667,0)" xlink:href="#aF"/><use transform="matrix(0.010416666666666668,0,0,0.010416666666666668,39.21875000000001,0)" xlink:href="#aC"/><use transform="matrix(0.010416666666666668,0,0,0.010416666666666668,47.895833333333336,0)" xlink:href="#aG"/><use transform="matrix(0.010416666666666668,0,0,0.010416666666666668,61.125000000000014,0)" xlink:href="#aH"/><use transform="matrix(0.010416666666666668,0,0,0.010416666666666668,73.84375000000001,0)" xlink:href="#aF"/><use transform="matrix(0.010416666666666668,0,0,0.010416666666666668,79.98958333333334,0)" xlink:href="#aw"/><use transform="matrix(0.010416666666666668,0,0,0.010416666666666668,93.00000000000001,0)" xlink:href="#aF"/><use transform="matrix(0.010416666666666668,0,0,0.010416666666666668,98.60416666666667,0)" xlink:href="#aI"/><use transform="matrix(0.010416666666666668,0,0,0.010416666666666668,112.0625,0)" xlink:href="#aJ"/><use transform="matrix(0.010416666666666668,0,0,0.010416666666666668,119.75,0)" xlink:href="#aw"/><use transform="matrix(0.010416666666666668,0,0,0.010416666666666668,132.42708333333334,0)" xlink:href="#aK"/></g><g id="y"><use transform="matrix(0.010416666666666668,0,0,0.010416666666666668,0,0)" xlink:href="#aC"/><use transform="matrix(0.010416666666666668,0,0,0.010416666666666668,8.677083333333334,0)" xlink:href="#aE"/><use transform="matrix(0.010416666666666668,0,0,0.010416666666666668,21.906249999999996,0)" xlink:href="#aw"/><use transform="matrix(0.010416666666666668,0,0,0.010416666666666668,34.91666666666667,0)" xlink:href="#aF"/><use transform="matrix(0.010416666666666668,0,0,0.010416666666666668,39.21875000000001,0)" xlink:href="#aC"/><use transform="matrix(0.010416666666666668,0,0,0.010416666666666668,47.895833333333336,0)" xlink:href="#aG"/><use transform="matrix(0.010416666666666668,0,0,0.010416666666666668,61.125000000000014,0)" xlink:href="#aH"/><use transform="matrix(0.010416666666666668,0,0,0.010416666666666668,73.84375000000001,0)" xlink:href="#aF"/><use transform="matrix(0.010416666666666668,0,0,0.010416666666666668,79.98958333333334,0)" xlink:href="#aK"/><use transform="matrix(0.010416666666666668,0,0,0.010416666666666668,93.05208333333334,0)" xlink:href="#aF"/><use transform="matrix(0.010416666666666668,0,0,0.010416666666666668,98.65624999999999,0)" xlink:href="#aI"/><use transform="matrix(0.010416666666666668,0,0,0.010416666666666668,112.11458333333334,0)" xlink:href="#aJ"/><use transform="matrix(0.010416666666666668,0,0,0.010416666666666668,119.80208333333334,0)" xlink:href="#aw"/><use transform="matrix(0.010416666666666668,0,0,0.010416666666666668,132.47916666666669,0)" xlink:href="#aK"/></g><path d="M537 14c-226 0-379-139-379-422v-710h180v695c0 172 97 275 253 275 160 0 281-109 281-300v-670h181V0H879v-209C806-46 684 14 537 14" id="aM"/><path d="M538 24C308 24 148-78 108-271l171-41c32 123 123 178 257 178 156 0 256-77 256-169 0-77-54-128-164-154l-186-44c-203-48-300-148-300-305 0-192 176-326 414-326 230 0 351 112 402 269l-163 42c-31-80-94-158-238-158-133 0-233 69-233 162 0 83 57 129 188 160l169 40c203 48 298 149 298 302 0 196-179 339-441 339" id="aN"/><path d="M628 24c-324 0-524-230-524-574 0-343 198-582 503-582 237 0 487 146 487 559v75H286c9 234 145 362 343 362 132 0 231-58 273-172l174 48C1024-91 857 24 628 24zM287-650h624c-17-190-120-322-304-322-192 0-309 151-320 322" id="aO"/><path d="M471 26C259 26 90-98 90-318c0-256 228-303 435-329 202-27 287-16 287-108 0-139-79-219-234-219-161 0-248 86-283 164l-173-57c86-203 278-265 451-265 150 0 419 46 419 395V0H815v-152h-12C765-73 660 26 471 26zm31-159c199 0 310-134 310-271v-155c-30 35-226 55-295 64-131 17-246 59-246 186 0 116 97 176 231 176" id="aP"/><path d="M598-1118v154H368v674c0 100 37 144 132 144 23 0 62-6 92-12L629-6c-37 13-88 20-134 20-193 0-307-107-307-290v-688H20v-154h168v-266h180v266h230" id="aQ"/><g id="z"><use transform="matrix(0.013671875,0,0,0.013671875,0,0)" xlink:href="#aM"/><use transform="matrix(0.013671875,0,0,0.013671875,16.556640625,0)" xlink:href="#aN"/><use transform="matrix(0.013671875,0,0,0.013671875,31.3359375,0)" xlink:href="#aB"/><use transform="matrix(0.013671875,0,0,0.013671875,44.21484375,0)" xlink:href="#aO"/><use transform="matrix(0.013671875,0,0,0.013671875,60.8125,0)" xlink:href="#aP"/><use transform="matrix(0.013671875,0,0,0.013671875,76.53515625,0)" xlink:href="#aN"/><use transform="matrix(0.013671875,0,0,0.013671875,91.314453125,0)" xlink:href="#aQ"/><use transform="matrix(0.013671875,0,0,0.013671875,99.927734375,0)" xlink:href="#aB"/><use transform="matrix(0.013671875,0,0,0.013671875,112.806640625,0)" xlink:href="#aC"/><use transform="matrix(0.013671875,0,0,0.013671875,124.1953125,0)" xlink:href="#aP"/></g><path d="M677 24c-213 0-288-135-325-197h-20V0H158v-1490h180v551h14c37-59 106-193 324-193 279 0 474 222 474 576 0 356-194 580-473 580zm-27-161c209 0 317-186 317-421 0-232-105-413-317-413-206 0-314 166-314 413 0 249 111 421 314 421" id="aR"/><g id="A"><use transform="matrix(0.013671875,0,0,0.013671875,0,0)" xlink:href="#aM"/><use transform="matrix(0.013671875,0,0,0.013671875,16.556640625,0)" xlink:href="#aN"/><use transform="matrix(0.013671875,0,0,0.013671875,31.3359375,0)" xlink:href="#aB"/><use transform="matrix(0.013671875,0,0,0.013671875,44.21484375,0)" xlink:href="#aO"/><use transform="matrix(0.013671875,0,0,0.013671875,60.8125,0)" xlink:href="#aP"/><use transform="matrix(0.013671875,0,0,0.013671875,76.53515625,0)" xlink:href="#aN"/><use transform="matrix(0.013671875,0,0,0.013671875,91.314453125,0)" xlink:href="#aQ"/><use transform="matrix(0.013671875,0,0,0.013671875,99.927734375,0)" xlink:href="#aB"/><use transform="matrix(0.013671875,0,0,0.013671875,112.806640625,0)" xlink:href="#aC"/><use transform="matrix(0.013671875,0,0,0.013671875,124.1953125,0)" xlink:href="#aR"/></g><g id="B"><use transform="matrix(0.010416666666666668,0,0,0.010416666666666668,0,0)" xlink:href="#av"/><use transform="matrix(0.010416666666666668,0,0,0.010416666666666668,16.072916666666668,0)" xlink:href="#an"/><use transform="matrix(0.010416666666666668,0,0,0.010416666666666668,28.97916666666667,0)" xlink:href="#al"/></g><path d="M409 0L70-1118h191c89 329 165 560 243 925 75-353 154-601 240-925h192c85 325 161 564 235 922 77-354 157-598 244-922h191L1267 0h-179c-86-307-176-590-250-913C763-588 675-308 588 0H409" id="aS"/><path d="M140 405l46-156c120 36 205 19 263-150l32-93L54-1118h197c107 313 237 620 324 950 87-331 219-637 326-950h196L606 167c-68 178-176 259-334 259-64 0-113-12-132-21" id="aT"/><g id="C"><use transform="matrix(0.010416666666666668,0,0,0.010416666666666668,0,0)" xlink:href="#ax"/><use transform="matrix(0.010416666666666668,0,0,0.010416666666666668,15.916666666666668,0)" xlink:href="#aP"/><use transform="matrix(0.010416666666666668,0,0,0.010416666666666668,27.895833333333336,0)" xlink:href="#aQ"/><use transform="matrix(0.010416666666666668,0,0,0.010416666666666668,34.66666666666667,0)" xlink:href="#aO"/><use transform="matrix(0.010416666666666668,0,0,0.010416666666666668,46.71875000000001,0)" xlink:href="#aS"/><use transform="matrix(0.010416666666666668,0,0,0.010416666666666668,64.17708333333334,0)" xlink:href="#aP"/><use transform="matrix(0.010416666666666668,0,0,0.010416666666666668,75.84375000000001,0)" xlink:href="#aT"/></g><path d="M218-607c0-325 108-727 258-974h175c-155 315-250 682-250 974 0 265 78 531 250 886H476C306-10 218-315 218-607" id="aU"/><path d="M613 24c-304 0-509-231-509-576 0-350 205-580 509-580 305 0 511 230 511 580 0 345-206 576-511 576zm0-161c226 0 329-195 329-415 0-222-103-419-329-419-223 0-326 196-326 419 0 220 103 415 326 415" id="aV"/><g id="D"><use transform="matrix(0.010416666666666668,0,0,0.010416666666666668,0,0)" xlink:href="#aU"/><use transform="matrix(0.010416666666666668,0,0,0.010416666666666668,7.781250000000001,0)" xlink:href="#aN"/><use transform="matrix(0.010416666666666668,0,0,0.010416666666666668,19.041666666666668,0)" xlink:href="#aV"/></g><path d="M158 418v-1536h174v179h20c37-59 106-193 324-193 279 0 474 222 474 576 0 356-194 580-473 580-213 0-288-135-325-197h-14v591H158zm492-555c209 0 317-186 317-421 0-232-105-413-317-413-206 0-314 166-314 413 0 249 111 421 314 421" id="aW"/><path d="M158 0v-1118h174v172h12c41-113 157-188 290-188 26 0 70 2 91 3v181c-11-2-60-10-108-10-161 0-279 109-279 260V0H158" id="aX"/><path d="M158 0v-1118h180V0H158zm91-1301c-68 0-125-53-125-119s57-119 125-119c69 0 126 53 126 119s-57 119-126 119" id="aY"/><path d="M481 0L54-1118h197c107 314 236 620 325 951 87-331 217-637 324-951h197L670 0H481" id="aZ"/><g id="E"><use transform="matrix(0.010416666666666668,0,0,0.010416666666666668,0,0)" xlink:href="#aW"/><use transform="matrix(0.010416666666666668,0,0,0.010416666666666668,13.062500000000002,0)" xlink:href="#aX"/><use transform="matrix(0.010416666666666668,0,0,0.010416666666666668,21.427083333333336,0)" xlink:href="#aY"/><use transform="matrix(0.010416666666666668,0,0,0.010416666666666668,26.593750000000004,0)" xlink:href="#aZ"/><use transform="matrix(0.010416666666666668,0,0,0.010416666666666668,38.47916666666667,0)" xlink:href="#aP"/><use transform="matrix(0.010416666666666668,0,0,0.010416666666666668,50.458333333333336,0)" xlink:href="#aQ"/><use transform="matrix(0.010416666666666668,0,0,0.010416666666666668,57.22916666666667,0)" xlink:href="#aO"/></g><path d="M338-670V0H158v-1118h173l1 207c72-158 192-221 342-221 226 0 378 139 378 422V0H872v-695c0-172-96-275-252-275-161 0-282 109-282 300" id="ba"/><g id="F"><use transform="matrix(0.010416666666666668,0,0,0.010416666666666668,0,0)" xlink:href="#aN"/><use transform="matrix(0.010416666666666668,0,0,0.010416666666666668,11.260416666666668,0)" xlink:href="#aM"/><use transform="matrix(0.010416666666666668,0,0,0.010416666666666668,23.874999999999996,0)" xlink:href="#aR"/><use transform="matrix(0.010416666666666668,0,0,0.010416666666666668,36.9375,0)" xlink:href="#ba"/><use transform="matrix(0.010416666666666668,0,0,0.010416666666666668,49.54166666666667,0)" xlink:href="#aO"/><use transform="matrix(0.010416666666666668,0,0,0.010416666666666668,61.97916666666667,0)" xlink:href="#aQ"/><use transform="matrix(0.010416666666666668,0,0,0.010416666666666668,68.75,0)" xlink:href="#aN"/></g><path d="M611 442c-248 0-391-105-460-228l146-94c47 65 117 165 314 165 178 0 307-82 307-266v-224h-17C863-141 792-18 576-18c-268 0-472-195-472-546 0-346 197-568 476-568 216 0 288 133 326 193h17v-179h175V29c0 289-215 413-487 413zm-5-620c203 0 314-146 314-390 0-237-108-403-314-403-213 0-319 180-319 403 0 230 109 390 319 390" id="bb"/><g id="G"><use transform="matrix(0.010416666666666668,0,0,0.010416666666666668,0,0)" xlink:href="#bb"/><use transform="matrix(0.010416666666666668,0,0,0.010416666666666668,13.083333333333334,0)" xlink:href="#aO"/><use transform="matrix(0.010416666666666668,0,0,0.010416666666666668,25.520833333333336,0)" xlink:href="#aQ"/></g><path d="M577 24c-279 0-473-224-473-580 0-354 195-576 474-576 218 0 287 134 324 193h14v-551h180V0H922v-173h-20C865-111 790 24 577 24zm27-161c203 0 314-172 314-421 0-247-108-413-314-413-212 0-317 181-317 413 0 235 108 421 317 421" id="bc"/><g id="H"><use transform="matrix(0.010416666666666668,0,0,0.010416666666666668,0,0)" xlink:href="#aV"/><use transform="matrix(0.010416666666666668,0,0,0.010416666666666668,12.791666666666668,0)" xlink:href="#aM"/><use transform="matrix(0.010416666666666668,0,0,0.010416666666666668,25.406249999999996,0)" xlink:href="#aQ"/><use transform="matrix(0.010416666666666668,0,0,0.010416666666666668,32.38541666666667,0)" xlink:href="#aR"/><use transform="matrix(0.010416666666666668,0,0,0.010416666666666668,45.44791666666667,0)" xlink:href="#aV"/><use transform="matrix(0.010416666666666668,0,0,0.010416666666666668,58.23958333333334,0)" xlink:href="#aM"/><use transform="matrix(0.010416666666666668,0,0,0.010416666666666668,70.85416666666667,0)" xlink:href="#ba"/><use transform="matrix(0.010416666666666668,0,0,0.010416666666666668,83.45833333333334,0)" xlink:href="#bc"/></g><g id="I"><use transform="matrix(0.010416666666666668,0,0,0.010416666666666668,0,0)" xlink:href="#aY"/><use transform="matrix(0.010416666666666668,0,0,0.010416666666666668,5.166666666666667,0)" xlink:href="#ba"/><use transform="matrix(0.010416666666666668,0,0,0.010416666666666668,17.770833333333336,0)" xlink:href="#aQ"/><use transform="matrix(0.010416666666666668,0,0,0.010416666666666668,24.541666666666668,0)" xlink:href="#aO"/><use transform="matrix(0.010416666666666668,0,0,0.010416666666666668,36.97916666666667,0)" xlink:href="#aX"/><use transform="matrix(0.010416666666666668,0,0,0.010416666666666668,45.34375000000001,0)" xlink:href="#ba"/><use transform="matrix(0.010416666666666668,0,0,0.010416666666666668,57.94791666666667,0)" xlink:href="#aO"/><use transform="matrix(0.010416666666666668,0,0,0.010416666666666668,70.38541666666667,0)" xlink:href="#aQ"/></g><g id="J"><use transform="matrix(0.010416666666666668,0,0,0.010416666666666668,0,0)" xlink:href="#aZ"/><use transform="matrix(0.010416666666666668,0,0,0.010416666666666668,11.989583333333334,0)" xlink:href="#aY"/><use transform="matrix(0.010416666666666668,0,0,0.010416666666666668,17.15625,0)" xlink:href="#aP"/></g><path d="M96 279C273-86 346-350 346-607c0-292-95-659-250-974h175c150 246 258 650 258 974 0 297-91 602-258 886H96" id="bd"/><g id="K"><use transform="matrix(0.010416666666666668,0,0,0.010416666666666668,0,0)" xlink:href="#av"/><use transform="matrix(0.010416666666666668,0,0,0.010416666666666668,16.072916666666668,0)" xlink:href="#an"/><use transform="matrix(0.010416666666666668,0,0,0.010416666666666668,28.97916666666667,0)" xlink:href="#al"/><use transform="matrix(0.010416666666666668,0,0,0.010416666666666668,42.75000000000001,0)" xlink:href="#bd"/></g><use transform="matrix(0.010416666666666668,0,0,0.010416666666666668,0,0)" xlink:href="#aB" id="L"/><path d="M338-1490V0H158v-1490h180" id="be"/><g id="M"><use transform="matrix(0.010416666666666668,0,0,0.010416666666666668,0,0)" xlink:href="#bc"/><use transform="matrix(0.010416666666666668,0,0,0.010416666666666668,13.062500000000002,0)" xlink:href="#aO"/><use transform="matrix(0.010416666666666668,0,0,0.010416666666666668,25.500000000000004,0)" xlink:href="#be"/><use transform="matrix(0.010416666666666668,0,0,0.010416666666666668,30.66666666666667,0)" xlink:href="#aO"/><use transform="matrix(0.010416666666666668,0,0,0.010416666666666668,43.10416666666667,0)" xlink:href="#aQ"/><use transform="matrix(0.010416666666666668,0,0,0.010416666666666668,49.87499999999999,0)" xlink:href="#aO"/><use transform="matrix(0.010416666666666668,0,0,0.010416666666666668,62.3125,0)" xlink:href="#bc"/></g><g id="N"><use transform="matrix(0.010416666666666668,0,0,0.010416666666666668,0,0)" xlink:href="#aQ"/><use transform="matrix(0.010416666666666668,0,0,0.010416666666666668,6.770833333333336,0)" xlink:href="#aV"/></g><g id="O"><use transform="matrix(0.010416666666666668,0,0,0.010416666666666668,0,0)" xlink:href="#aN"/><use transform="matrix(0.010416666666666668,0,0,0.010416666666666668,11.260416666666668,0)" xlink:href="#aP"/><use transform="matrix(0.010416666666666668,0,0,0.010416666666666668,22.927083333333336,0)" xlink:href="#aZ"/><use transform="matrix(0.010416666666666668,0,0,0.010416666666666668,34.5,0)" xlink:href="#aO"/></g><path d="M613 24c-304 0-509-231-509-576 0-350 205-580 509-580 216 0 392 114 453 309l-173 49c-33-115-133-197-280-197-223 0-326 196-326 419 0 220 103 415 326 415 150 0 252-85 285-206l172 49C1010-95 832 24 613 24" id="bf"/><g id="P"><use transform="matrix(0.010416666666666668,0,0,0.010416666666666668,0,0)" xlink:href="#bf"/><use transform="matrix(0.010416666666666668,0,0,0.010416666666666668,12.187500000000002,0)" xlink:href="#aV"/><use transform="matrix(0.010416666666666668,0,0,0.010416666666666668,24.979166666666668,0)" xlink:href="#aN"/><use transform="matrix(0.010416666666666668,0,0,0.010416666666666668,36.23958333333334,0)" xlink:href="#aQ"/></g><g id="Q"><use transform="matrix(0.010416666666666668,0,0,0.010416666666666668,0,0)" xlink:href="#as"/><use transform="matrix(0.010416666666666668,0,0,0.010416666666666668,5.729166666666667,0)" xlink:href="#ba"/><use transform="matrix(0.010416666666666668,0,0,0.010416666666666668,18.333333333333336,0)" xlink:href="#aQ"/><use transform="matrix(0.010416666666666668,0,0,0.010416666666666668,25.104166666666668,0)" xlink:href="#aO"/><use transform="matrix(0.010416666666666668,0,0,0.010416666666666668,37.54166666666667,0)" xlink:href="#aX"/><use transform="matrix(0.010416666666666668,0,0,0.010416666666666668,45.90625000000001,0)" xlink:href="#ba"/><use transform="matrix(0.010416666666666668,0,0,0.010416666666666668,58.51041666666667,0)" xlink:href="#aO"/><use transform="matrix(0.010416666666666668,0,0,0.010416666666666668,70.94791666666667,0)" xlink:href="#aQ"/></g><g id="R"><use transform="matrix(0.010416666666666668,0,0,0.010416666666666668,0,0)" xlink:href="#ax"/><use transform="matrix(0.010416666666666668,0,0,0.010416666666666668,15.916666666666668,0)" xlink:href="#aP"/><use transform="matrix(0.010416666666666668,0,0,0.010416666666666668,27.895833333333336,0)" xlink:href="#aQ"/><use transform="matrix(0.010416666666666668,0,0,0.010416666666666668,34.66666666666667,0)" xlink:href="#aO"/><use transform="matrix(0.010416666666666668,0,0,0.010416666666666668,46.71875000000001,0)" xlink:href="#aS"/><use transform="matrix(0.010416666666666668,0,0,0.010416666666666668,64.17708333333334,0)" xlink:href="#aP"/><use transform="matrix(0.010416666666666668,0,0,0.010416666666666668,75.84375000000001,0)" xlink:href="#aT"/></g><g id="S"><use transform="matrix(0.010416666666666668,0,0,0.010416666666666668,0,0)" xlink:href="#aX"/><use transform="matrix(0.010416666666666668,0,0,0.010416666666666668,7.677083333333336,0)" xlink:href="#aO"/><use transform="matrix(0.010416666666666668,0,0,0.010416666666666668,20.114583333333336,0)" xlink:href="#aN"/><use transform="matrix(0.010416666666666668,0,0,0.010416666666666668,31.375000000000004,0)" xlink:href="#aV"/><use transform="matrix(0.010416666666666668,0,0,0.010416666666666668,44.16666666666667,0)" xlink:href="#aM"/><use transform="matrix(0.010416666666666668,0,0,0.010416666666666668,56.78125000000001,0)" xlink:href="#aX"/><use transform="matrix(0.010416666666666668,0,0,0.010416666666666668,64.45833333333334,0)" xlink:href="#bf"/><use transform="matrix(0.010416666666666668,0,0,0.010416666666666668,76.64583333333334,0)" xlink:href="#aO"/><use transform="matrix(0.010416666666666668,0,0,0.010416666666666668,89.08333333333334,0)" xlink:href="#aN"/></g><g id="T"><use transform="matrix(0.010416666666666668,0,0,0.010416666666666668,0,0)" xlink:href="#aY"/><use transform="matrix(0.010416666666666668,0,0,0.010416666666666668,5.166666666666667,0)" xlink:href="#ba"/></g><g id="U"><use transform="matrix(0.010416666666666668,0,0,0.010416666666666668,0,0)" xlink:href="#aW"/><use transform="matrix(0.010416666666666668,0,0,0.010416666666666668,13.062500000000002,0)" xlink:href="#aM"/><use transform="matrix(0.010416666666666668,0,0,0.010416666666666668,25.677083333333336,0)" xlink:href="#aR"/><use transform="matrix(0.010416666666666668,0,0,0.010416666666666668,38.739583333333336,0)" xlink:href="#be"/><use transform="matrix(0.010416666666666668,0,0,0.010416666666666668,43.90624999999999,0)" xlink:href="#aY"/><use transform="matrix(0.010416666666666668,0,0,0.010416666666666668,49.072916666666664,0)" xlink:href="#bf"/></g><g id="V"><use transform="matrix(0.010416666666666668,0,0,0.010416666666666668,0,0)" xlink:href="#bf"/><use transform="matrix(0.010416666666666668,0,0,0.010416666666666668,12.395833333333334,0)" xlink:href="#aP"/><use transform="matrix(0.010416666666666668,0,0,0.010416666666666668,24.375000000000004,0)" xlink:href="#ba"/></g><path d="M338-670V0H158v-1490h180v566c73-149 190-208 336-208 226 0 379 139 379 422V0H872v-695c0-172-96-275-252-275-161 0-282 109-282 300" id="bg"/><g id="W"><use transform="matrix(0.010416666666666668,0,0,0.010416666666666668,0,0)" xlink:href="#aX"/><use transform="matrix(0.010416666666666668,0,0,0.010416666666666668,7.677083333333336,0)" xlink:href="#aO"/><use transform="matrix(0.010416666666666668,0,0,0.010416666666666668,20.32291666666667,0)" xlink:href="#aP"/><use transform="matrix(0.010416666666666668,0,0,0.010416666666666668,32.30208333333334,0)" xlink:href="#bf"/><use transform="matrix(0.010416666666666668,0,0,0.010416666666666668,44.489583333333336,0)" xlink:href="#bg"/></g><g id="X"><use transform="matrix(0.010416666666666668,0,0,0.010416666666666668,0,0)" xlink:href="#aQ"/><use transform="matrix(0.010416666666666668,0,0,0.010416666666666668,6.979166666666668,0)" xlink:href="#bg"/><use transform="matrix(0.010416666666666668,0,0,0.010416666666666668,19.59375,0)" xlink:href="#aO"/></g><g id="Y"><use transform="matrix(0.010416666666666668,0,0,0.010416666666666668,0,0)" xlink:href="#aY"/><use transform="matrix(0.010416666666666668,0,0,0.010416666666666668,5.166666666666667,0)" xlink:href="#ba"/><use transform="matrix(0.010416666666666668,0,0,0.010416666666666668,17.770833333333336,0)" xlink:href="#aQ"/><use transform="matrix(0.010416666666666668,0,0,0.010416666666666668,24.541666666666668,0)" xlink:href="#aO"/><use transform="matrix(0.010416666666666668,0,0,0.010416666666666668,36.97916666666667,0)" xlink:href="#aX"/><use transform="matrix(0.010416666666666668,0,0,0.010416666666666668,45.34375000000001,0)" xlink:href="#ba"/><use transform="matrix(0.010416666666666668,0,0,0.010416666666666668,57.94791666666667,0)" xlink:href="#aO"/><use transform="matrix(0.010416666666666668,0,0,0.010416666666666668,70.38541666666667,0)" xlink:href="#aQ"/><use transform="matrix(0.010416666666666668,0,0,0.010416666666666668,77.36458333333334,0)" xlink:href="#bd"/><use transform="matrix(0.010416666666666668,0,0,0.010416666666666668,85.14583333333334,0)" xlink:href="#aF"/></g><path d="M571 0L49-1490h339c138 427 271 775 384 1244 111-471 237-815 371-1244h337L970 0H571" id="bh"/><path d="M135 0v-1490h581c339 0 533 210 533 503 0 295-197 500-540 500H440V0H135zm305-733h220c186 0 274-104 274-254s-88-251-275-251H440v505" id="bi"/><path d="M786 20C389 20 94-260 94-744c0-487 299-766 692-766 339 0 597 194 641 529h-309c-28-162-156-258-326-258-233 0-388 179-388 495 0 323 157 493 387 493 170 0 298-97 328-259h309c-34 277-266 530-642 530" id="bj"/><g id="Z"><use transform="matrix(0.018012152777777773,0,0,0.018012152777777773,0,0)" xlink:href="#bh"/><use transform="matrix(0.018012152777777773,0,0,0.018012152777777773,27.540581597222214,0)" xlink:href="#bi"/><use transform="matrix(0.018012152777777773,0,0,0.018012152777777773,51.44270833333331,0)" xlink:href="#bj"/></g><path d="M49 0l509-1490h400L1480 0h-339l-115-346H497L386 0H49zm524-585h374c-75-213-124-402-192-666-66 268-110 453-182 666" id="bk"/><path d="M128 0v-1118h290v195h12c54-169 184-238 367-200v268c-27-8-86-15-130-15-138 0-239 95-239 234V0H128" id="bl"/><path d="M628 22C291 22 81-210 81-554c0-346 210-578 547-578 265 0 455 142 497 372l-279 52c-25-116-99-188-215-188-160 0-244 139-244 341 0 200 84 341 244 341 116 0 193-74 217-195l279 51C1085-123 896 22 628 22" id="bm"/><path d="M428-647V0H128v-1490h294v586c65-146 175-228 341-228 232 0 385 159 385 421V0H847v-659c0-139-76-222-202-222-128 0-217 86-217 234" id="bn"/><path d="M128 0v-1118h300V0H128zm150-1264c-91 0-165-68-165-154 0-85 74-154 165-154 90 0 165 69 165 154 0 86-75 154-165 154" id="bo"/><path d="M683-1118v229H474v562c0 71 29 104 102 104 23 0 73-7 95-13l43 225C647 9 580 16 520 16 296 16 174-96 174-301v-588H20v-229h154v-266h300v266h209" id="bp"/><path d="M633 22C291 22 81-200 81-553c0-345 210-579 537-579 292 0 525 185 525 567v84H378c7 183 109 277 260 277 105 0 184-46 216-132l272 51C1071-99 893 22 633 22zM380-669h474c-15-146-94-237-233-237-143 0-229 99-241 237" id="bq"/><path d="M513 14c-232 0-385-159-385-421v-711h300v659c0 139 76 222 202 222 127 0 217-86 217-234v-647h301V0H864l-4-232C797-74 683 14 513 14" id="br"/><g id="aa"><use transform="matrix(0.018012152777777773,0,0,0.018012152777777773,0,0)" xlink:href="#bk"/><use transform="matrix(0.018012152777777773,0,0,0.018012152777777773,27.540581597222214,0)" xlink:href="#bl"/><use transform="matrix(0.018012152777777773,0,0,0.018012152777777773,41.662109374999986,0)" xlink:href="#bm"/><use transform="matrix(0.018012152777777773,0,0,0.018012152777777773,63.36675347222219,0)" xlink:href="#bn"/><use transform="matrix(0.018012152777777773,0,0,0.018012152777777773,86.33224826388887,0)" xlink:href="#bo"/><use transform="matrix(0.018012152777777773,0,0,0.018012152777777773,96.32899305555551,0)" xlink:href="#bp"/><use transform="matrix(0.018012152777777773,0,0,0.018012152777777773,109.47786458333329,0)" xlink:href="#bq"/><use transform="matrix(0.018012152777777773,0,0,0.018012152777777773,131.45269097222217,0)" xlink:href="#bm"/><use transform="matrix(0.018012152777777773,0,0,0.018012152777777773,153.1573350694444,0)" xlink:href="#bp"/><use transform="matrix(0.018012152777777773,0,0,0.018012152777777773,166.66644965277774,0)" xlink:href="#br"/><use transform="matrix(0.018012152777777773,0,0,0.018012152777777773,189.6319444444444,0)" xlink:href="#bl"/><use transform="matrix(0.018012152777777773,0,0,0.018012152777777773,203.75347222222217,0)" xlink:href="#bq"/></g><path d="M361 0L31-1118h315c68 295 127 523 188 845 63-317 128-551 199-845h276c71 296 131 525 196 846 57-321 119-552 186-846h319L1378 0h-305c-73-261-148-486-204-771C813-484 740-261 666 0H361" id="bs"/><g id="ab"><use transform="matrix(0.018012152777777773,0,0,0.018012152777777773,0,0)" xlink:href="#bs"/><use transform="matrix(0.018012152777777773,0,0,0.018012152777777773,31.359157986111104,0)" xlink:href="#bo"/><use transform="matrix(0.018012152777777773,0,0,0.018012152777777773,41.35590277777777,0)" xlink:href="#bp"/><use transform="matrix(0.018012152777777773,0,0,0.018012152777777773,54.955078124999986,0)" xlink:href="#bn"/></g><path d="M754 19C571 19 479-89 437-179h-14V0H128v-1490h300v560h9c41-89 129-202 319-202 248 0 453 193 453 575 0 372-197 576-455 576zm-92-241c156 0 240-139 240-336 0-196-83-334-240-334-154 0-241 131-241 334 0 202 88 336 241 336" id="bt"/><path d="M428-1490V0H128v-1490h300" id="bu"/><g id="ac"><use transform="matrix(0.018012152777777773,0,0,0.018012152777777773,0,0)" xlink:href="#bi"/><use transform="matrix(0.018012152777777773,0,0,0.018012152777777773,23.902126736111104,0)" xlink:href="#br"/><use transform="matrix(0.018012152777777773,0,0,0.018012152777777773,46.867621527777764,0)" xlink:href="#bt"/><use transform="matrix(0.018012152777777773,0,0,0.018012152777777773,70.12131076388887,0)" xlink:href="#bu"/><use transform="matrix(0.018012152777777773,0,0,0.018012152777777773,80.11805555555554,0)" xlink:href="#bo"/><use transform="matrix(0.018012152777777773,0,0,0.018012152777777773,90.1148003472222,0)" xlink:href="#bm"/></g><path d="M440 22C227 22 68-92 68-313c0-250 202-322 422-343 195-21 271-24 271-105 0-95-63-149-175-149-116 0-187 57-211 129l-275-46c57-194 237-305 487-305 240 0 474 108 474 379V0H777v-155h-10C713-51 605 22 440 22zm85-211c140 0 238-93 238-211v-121c-37 26-156 42-222 51-111 16-185 59-185 149 0 87 70 132 169 132" id="bv"/><path d="M428-647V0H128v-1118h283l4 231c63-156 176-245 348-245 232 0 384 159 384 421V0H847v-659c0-139-76-222-202-222-128 0-217 86-217 234" id="bw"/><path d="M537 19C279 19 81-185 81-557c0-382 206-575 454-575 190 0 278 113 318 202h10v-560h300V0H868v-179h-15C812-89 719 19 537 19zm92-241c153 0 240-134 240-336 0-203-86-334-240-334-158 0-240 138-240 334 0 197 84 336 240 336" id="bx"/><g id="ad"><use transform="matrix(0.018012152777777773,0,0,0.018012152777777773,0,0)" xlink:href="#bv"/><use transform="matrix(0.018012152777777773,0,0,0.018012152777777773,21.41644965277777,0)" xlink:href="#bw"/><use transform="matrix(0.018012152777777773,0,0,0.018012152777777773,44.38194444444443,0)" xlink:href="#bx"/></g><path d="M443 0L31-1118h319c90 293 199 572 268 885 66-313 175-593 264-885h315L784 0H443" id="by"/><g id="ae"><use transform="matrix(0.018012152777777773,0,0,0.018012152777777773,0,0)" xlink:href="#bi"/><use transform="matrix(0.018012152777777773,0,0,0.018012152777777773,23.902126736111104,0)" xlink:href="#bl"/><use transform="matrix(0.018012152777777773,0,0,0.018012152777777773,39.194444444444436,0)" xlink:href="#bo"/><use transform="matrix(0.018012152777777773,0,0,0.018012152777777773,49.1911892361111,0)" xlink:href="#by"/><use transform="matrix(0.018012152777777773,0,0,0.018012152777777773,70.94986979166664,0)" xlink:href="#bv"/><use transform="matrix(0.018012152777777773,0,0,0.018012152777777773,92.36631944444441,0)" xlink:href="#bp"/><use transform="matrix(0.018012152777777773,0,0,0.018012152777777773,105.51519097222219,0)" xlink:href="#bq"/></g><path d="M681 22C323 22 94-145 85-462h297c10 151 131 226 296 226 163 0 271-77 271-190 0-102-95-149-257-189l-164-41c-252-61-403-188-403-405 0-269 236-449 560-449 330 0 546 183 551 445H941c-11-119-106-188-259-188-156 0-244 72-244 172-3 156 226 185 373 221 250 61 445 186 445 436 0 271-213 446-575 446" id="bz"/><path d="M572 22C302 22 117-98 78-306l279-48c29 105 101 156 224 156 114 0 185-48 185-115 0-118-228-130-337-155-215-49-322-150-322-317 0-215 187-347 470-347 265 0 424 116 466 298l-266 47c-24-76-87-130-196-130-98 0-174 46-174 113 0 56 38 95 144 117l201 40c216 44 320 143 320 302 0 220-207 367-500 367" id="bA"/><g id="af"><use transform="matrix(0.018012152777777773,0,0,0.018012152777777773,0,0)" xlink:href="#bz"/><use transform="matrix(0.018012152777777773,0,0,0.018012152777777773,24.154296874999993,0)" xlink:href="#br"/><use transform="matrix(0.018012152777777773,0,0,0.018012152777777773,47.11979166666665,0)" xlink:href="#bt"/><use transform="matrix(0.018012152777777773,0,0,0.018012152777777773,70.37348090277776,0)" xlink:href="#bw"/><use transform="matrix(0.018012152777777773,0,0,0.018012152777777773,93.33897569444441,0)" xlink:href="#bq"/><use transform="matrix(0.018012152777777773,0,0,0.018012152777777773,115.3138020833333,0)" xlink:href="#bp"/><use transform="matrix(0.018012152777777773,0,0,0.018012152777777773,128.55273437499997,0)" xlink:href="#bA"/></g><path d="M169-607c0-330 107-732 258-974h279c-145 311-231 674-231 974 0 262 67 512 231 886H427C258-1 169-307 169-607" id="bB"/><path d="M124 0v-220l528-495c135-132 210-216 210-336 0-133-98-215-231-215-139 0-229 88-229 233H110c0-290 214-477 523-477 315 0 525 182 525 440 0 167-80 305-385 586L548-262v11h630V0H124" id="bC"/><path d="M818-733v240H140v-240h678" id="bD"/><path d="M75-1237v-253h1217v253H837V0H531v-1237H75" id="bE"/><g id="ag"><use transform="matrix(0.018012152777777773,0,0,0.018012152777777773,0,0)" xlink:href="#bB"/><use transform="matrix(0.018012152777777773,0,0,0.018012152777777773,13.905381944444441,0)" xlink:href="#bC"/><use transform="matrix(0.018012152777777773,0,0,0.018012152777777773,37.141059027777764,0)" xlink:href="#bD"/><use transform="matrix(0.018012152777777773,0,0,0.018012152777777773,51.56879340277777,0)" xlink:href="#bE"/><use transform="matrix(0.018012152777777773,0,0,0.018012152777777773,76.19140624999999,0)" xlink:href="#bo"/><use transform="matrix(0.018012152777777773,0,0,0.018012152777777773,86.18815104166666,0)" xlink:href="#bq"/><use transform="matrix(0.018012152777777773,0,0,0.018012152777777773,108.16297743055554,0)" xlink:href="#bl"/></g><path d="M128 418v-1536h295v188h14c41-89 129-202 319-202 248 0 453 193 453 575 0 372-197 576-455 576-183 0-275-108-317-198h-9v597H128zm534-640c156 0 240-139 240-336 0-196-83-334-240-334-154 0-241 131-241 334 0 202 88 336 241 336" id="bF"/><path d="M67 279c166-379 230-627 230-886 0-300-86-663-230-974h278c151 241 258 644 258 974 0 302-90 608-258 886H67" id="bG"/><g id="ah"><use transform="matrix(0.018012152777777773,0,0,0.018012152777777773,0,0)" xlink:href="#bz"/><use transform="matrix(0.018012152777777773,0,0,0.018012152777777773,24.154296874999993,0)" xlink:href="#bq"/><use transform="matrix(0.018012152777777773,0,0,0.018012152777777773,46.129123263888864,0)" xlink:href="#bp"/><use transform="matrix(0.018012152777777773,0,0,0.018012152777777773,59.6382378472222,0)" xlink:href="#br"/><use transform="matrix(0.018012152777777773,0,0,0.018012152777777773,82.60373263888884,0)" xlink:href="#bF"/><use transform="matrix(0.018012152777777773,0,0,0.018012152777777773,105.38910590277773,0)" xlink:href="#bG"/></g></defs></g></svg>